<?xml version="1.0" encoding="UTF-8"?>
<svg width="111px" height="23px" viewBox="0 0 111 23" version="1.1" xmlns="http://www.w3.org/2000/svg" xmlns:xlink="http://www.w3.org/1999/xlink">
    <!-- Generator: Sketch 48.2 (47327) - http://www.bohemiancoding.com/sketch -->
    <title>Logo Blendert.</title>
    <desc>Created with Sketch.</desc>
    <defs></defs>
    <g id="Desktop" stroke="none" stroke-width="1" fill="none" fill-rule="evenodd" transform="translate(-456.000000, -9958.000000)">
        <g id="Footer" transform="translate(0.000000, 9683.000000)" fill="#FFFFFF">
            <g id="Logo-Blendert." transform="translate(456.000000, 275.000000)">
                <g>
                    <path d="M11.3353817,10.2514972 C11.3353817,11.0411251 11.1779474,11.704811 10.8630741,12.2425749 C10.5482008,12.7803387 10.1306577,13.2125854 9.61043228,13.539328 C9.09020685,13.8660706 8.49811705,14.1009133 7.83414512,14.2438632 C7.17017319,14.386813 6.48909879,14.4582869 5.7909015,14.4582869 L0,14.4582869 L0,0 L5.7909015,0 C6.35219736,3.02296102e-15 6.92717474,0.0578597974 7.51585089,0.173581128 C8.10452703,0.289302459 8.6384346,0.486706474 9.1175896,0.765799095 C9.5967446,1.04489172 9.98690782,1.42268216 10.288091,1.89918175 C10.5892741,2.37568135 10.7398634,2.98150747 10.7398634,3.71667827 C10.7398634,4.51992045 10.5208244,5.18360636 10.0827399,5.70775592 C9.64465528,6.23190548 9.0696779,6.60969592 8.35779047,6.84113858 L8.35779047,6.8819812 C8.76849475,6.95005257 9.15523549,7.07598272 9.51802428,7.25977542 C9.88081307,7.44356812 10.1956816,7.67841083 10.4626394,7.96431058 C10.7295972,8.25021034 10.9417912,8.58375506 11.0992279,8.96495474 C11.2566645,9.34615441 11.3353817,9.77499762 11.3353817,10.2514972 Z M7.35156999,4.18636838 C7.35156999,3.69625451 7.16333335,3.33888518 6.78685442,3.11424965 C6.41037549,2.88961413 5.85251053,2.77729805 5.11324282,2.77729805 L3.38829343,2.77729805 L3.38829343,5.75880919 L5.27752371,5.75880919 C5.93465057,5.75880919 6.44460074,5.62607201 6.80738953,5.36059366 C7.17017832,5.09511532 7.35156999,4.7037108 7.35156999,4.18636838 Z M7.82387756,9.92475627 C7.82387756,9.3257282 7.59799359,8.91049907 7.14621888,8.67905641 C6.69444416,8.44761375 6.09208691,8.33189415 5.33912904,8.33189415 L3.38829343,8.33189415 L3.38829343,11.6401462 L5.35966416,11.6401462 C5.63346702,11.6401462 5.91753322,11.6163216 6.21187129,11.5686717 C6.50620937,11.5210217 6.77316315,11.4359338 7.01274065,11.3134053 C7.25231815,11.1908768 7.44739976,11.0172974 7.59799133,10.7926619 C7.74858291,10.5680264 7.82387756,10.2787274 7.82387756,9.92475627 Z M13.6558493,14.4582869 L13.6558493,0 L17.1878885,0 L17.1878885,11.4155118 L22.8145091,11.4155118 L22.8145091,14.4582869 L13.6558493,14.4582869 Z M24.457318,14.4582869 L24.457318,0 L34.2320312,0 L34.2320312,2.96108983 L27.8456115,2.96108983 L27.8456115,5.67712396 L33.8829343,5.67712396 L33.8829343,8.47484331 L27.8456115,8.47484331 L27.8456115,11.4767758 L34.6016632,11.4767758 L34.6016632,14.4582869 L24.457318,14.4582869 Z M46.1629311,14.4582869 L40.3104243,5.00322075 L40.248819,5.00322075 L40.3309594,14.4582869 L36.9221309,14.4582869 L36.9221309,0 L40.9264776,0 L46.7584494,9.43464485 L46.8200547,9.43464485 L46.7379143,0 L50.1467428,0 L50.1467428,14.4582869 L46.1629311,14.4582869 Z M66.7185779,7.18830084 C66.7185779,8.45442834 66.4824265,9.54695745 66.0101166,10.465921 C65.5378067,11.3848845 64.9149145,12.1404654 64.1414214,12.7326863 C63.3679284,13.3249072 62.4951948,13.7605574 61.5231947,14.0396501 C60.5511945,14.3187427 59.565519,14.4582869 58.5661386,14.4582869 L53.1448691,14.4582869 L53.1448691,0 L58.4018577,0 C59.4286184,3.02296102e-15 60.4416738,0.119123112 61.4410542,0.357372911 C62.4404347,0.595622709 63.3302806,0.990430739 64.1106188,1.54180884 C64.8909569,2.09318695 65.520694,2.83175025 65.999849,3.75752089 C66.479004,4.68329154 66.7185779,5.82687342 66.7185779,7.18830084 Z M63.0633281,7.18830084 C63.0633281,6.37144438 62.9298512,5.6941444 62.6628934,5.15638057 C62.3959356,4.61861674 62.0399972,4.18977354 61.5950676,3.86983809 C61.1501379,3.54990265 60.6436102,3.32186698 60.0754693,3.18572423 C59.5073284,3.04958149 58.9220835,2.98151114 58.3197173,2.98151114 L56.5742328,2.98151114 L56.5742328,11.4359331 L58.2375768,11.4359331 C58.8673234,11.4359331 59.4731031,11.3644593 60.0549342,11.2215094 C60.6367653,11.0785595 61.1501379,10.8437168 61.5950676,10.5169742 C62.0399972,10.1902317 62.3959356,9.75458141 62.6628934,9.21001045 C62.9298512,8.66543948 63.0633281,7.99154301 63.0633281,7.18830084 Z M69.0390456,14.4582869 L69.0390456,0 L78.8137587,0 L78.8137587,2.96108983 L72.427339,2.96108983 L72.427339,5.67712396 L78.4646618,5.67712396 L78.4646618,8.47484331 L72.427339,8.47484331 L72.427339,11.4767758 L79.1833908,11.4767758 L79.1833908,14.4582869 L69.0390456,14.4582869 Z M89.2866657,14.4582869 L86.1447936,8.71989903 L84.9537571,8.71989903 L84.9537571,14.4582869 L81.5038584,14.4582869 L81.5038584,0 L87.0483385,0 C87.7465358,3.02296102e-15 88.4276102,0.0714738674 89.0915822,0.214423747 C89.7555541,0.357373626 90.3510664,0.599023368 90.8781369,0.939380223 C91.4052074,1.27973708 91.826173,1.72900139 92.1410462,2.28718663 C92.4559195,2.84537187 92.6133538,3.53968944 92.6133538,4.37016017 C92.6133538,5.35038791 92.3464,6.17403914 91.8124845,6.84113858 C91.2785689,7.50823802 90.5393123,7.98473046 89.5946924,8.27063022 L93.3936881,14.4582869 L89.2866657,14.4582869 Z M89.1429199,4.43142409 C89.1429199,4.09106724 89.0710478,3.81538232 88.9273013,3.60436107 C88.7835548,3.39333982 88.5987406,3.22997098 88.3728532,3.11424965 C88.1469659,2.99852832 87.893702,2.92024742 87.6130541,2.8794046 C87.3324062,2.83856177 87.0620299,2.81814067 86.8019172,2.81814067 L84.933222,2.81814067 L84.933222,6.18765669 L86.5965661,6.18765669 C86.8840591,6.18765669 87.1783927,6.16383206 87.4795759,6.1161821 C87.780759,6.06853214 88.0545578,5.98344421 88.3009804,5.86091574 C88.5474029,5.73838727 88.7493295,5.56140436 88.9067662,5.3299617 C89.0642028,5.09851904 89.1429199,4.7990095 89.1429199,4.43142409 Z M101.340776,2.98151114 L101.340776,14.4582869 L97.8292722,14.4582869 L97.8292722,2.98151114 L93.7222498,2.98151114 L93.7222498,0 L105.447799,0 L105.447799,2.98151114 L101.340776,2.98151114 Z M110.704787,12.6612117 C110.704787,13.2330112 110.502861,13.7095037 110.099001,14.0907033 C109.695142,14.471903 109.212572,14.6625 108.651276,14.6625 C108.363783,14.6625 108.093407,14.6114472 107.840139,14.5093402 C107.586872,14.4072331 107.36441,14.2676889 107.172748,14.0907033 C106.981086,13.9137178 106.830497,13.7061032 106.720976,13.4678534 C106.611454,13.2296036 106.556695,12.9675328 106.556695,12.681633 C106.556695,12.4093475 106.611454,12.1506802 106.720976,11.9056233 C106.830497,11.6605663 106.981086,11.4461447 107.172748,11.262352 C107.36441,11.0785593 107.586872,10.9322081 107.840139,10.8232939 C108.093407,10.7143797 108.363783,10.6599234 108.651276,10.6599234 C109.212572,10.6599234 109.695142,10.8505204 110.099001,11.2317201 C110.502861,11.6129197 110.704787,12.0894122 110.704787,12.6612117 Z" id="BLENDERT."></path>
                    <path d="M3.06155954,21.6142761 C3.06155954,21.8271779 3.0190383,22.0061228 2.93399456,22.1511162 C2.84895081,22.2961096 2.7361771,22.4126532 2.59567004,22.5007505 C2.45516298,22.5888478 2.29524617,22.6521667 2.11591479,22.6907093 C1.93658341,22.7292518 1.75263285,22.7485228 1.56405759,22.7485228 L0,22.7485228 L0,18.8502381 L1.56405759,18.8502381 C1.71565731,18.8502381 1.87095226,18.8658384 2.02994708,18.8970396 C2.18894191,18.9282407 2.33314436,18.9814653 2.46255876,19.0567151 C2.59197315,19.1319648 2.69735187,19.2338258 2.77869806,19.3623009 C2.86004425,19.4907761 2.90071673,19.6541207 2.90071673,19.8523396 C2.90071673,20.068912 2.84155676,20.2478569 2.72323502,20.3891796 C2.60491329,20.5305023 2.44961834,20.6323632 2.25734553,20.6947655 L2.25734553,20.7057776 C2.36827215,20.7241312 2.47272649,20.7580848 2.57071168,20.8076395 C2.66869686,20.8571943 2.75373933,20.9205132 2.82584164,20.9975983 C2.89794394,21.0746834 2.95525517,21.1646147 2.99777705,21.2673949 C3.04029892,21.370175 3.06155954,21.485801 3.06155954,21.6142761 Z M1.98557666,19.9789787 C1.98557666,19.8468328 1.93473605,19.7504779 1.83305331,19.689911 C1.73137057,19.6293441 1.5806975,19.5990612 1.38102957,19.5990612 L0.915140079,19.5990612 L0.915140079,20.4029447 L1.4254,20.4029447 C1.6028826,20.4029447 1.74061443,20.3671558 1.83859961,20.2955767 C1.9365848,20.2239977 1.98557666,20.1184661 1.98557666,19.9789787 Z M2.11314164,21.5261793 C2.11314164,21.3646676 2.05213291,21.2527124 1.93011362,21.1903101 C1.80809433,21.1279079 1.64540439,21.0967073 1.44203891,21.0967073 L0.915140079,21.0967073 L0.915140079,21.9886877 L1.44758522,21.9886877 C1.5215363,21.9886877 1.5982594,21.982264 1.67775681,21.9694165 C1.75725423,21.956569 1.82935545,21.9336273 1.89406265,21.9005908 C1.95876985,21.8675544 2.0114592,21.8207534 2.0521323,21.7601865 C2.09280539,21.6996196 2.11314164,21.621618 2.11314164,21.5261793 Z M3.68829183,22.7485228 L3.68829183,18.8502381 L6.3283323,18.8502381 L6.3283323,19.6486156 L4.60343191,19.6486156 L4.60343191,20.3809205 L6.23404514,20.3809205 L6.23404514,21.1352496 L4.60343191,21.1352496 L4.60343191,21.9446392 L6.42816577,21.9446392 L6.42816577,22.7485228 L3.68829183,22.7485228 Z M9.12921557,19.8633517 C9.04786938,19.7605715 8.9415663,19.6788992 8.81030312,19.6183323 C8.67903995,19.5577655 8.55240062,19.5274825 8.43038133,19.5274825 C8.36752291,19.5274825 8.30374106,19.5329885 8.23903386,19.5440006 C8.17432666,19.5550128 8.11609106,19.5761191 8.0643253,19.6073202 C8.01255954,19.6385214 7.96911393,19.6788987 7.93398717,19.7284534 C7.8988604,19.7780081 7.88129729,19.8413271 7.88129729,19.9184122 C7.88129729,19.9844851 7.89516291,20.0395451 7.92289456,20.0835937 C7.95062622,20.1276424 7.9912987,20.1661843 8.04491324,20.1992208 C8.09852777,20.2322573 8.16230963,20.2625403 8.23626071,20.2900707 C8.31021179,20.3176011 8.39340551,20.3460487 8.48584437,20.3754145 C8.61895632,20.4194631 8.75761252,20.4680994 8.90181713,20.5213248 C9.04602174,20.5745503 9.17728295,20.6452106 9.29560468,20.7333078 C9.41392641,20.8214051 9.51191013,20.9306074 9.58955877,21.0609179 C9.6672074,21.1912285 9.70603114,21.3536554 9.70603114,21.5482035 C9.70603114,21.7721174 9.66443428,21.965745 9.58123931,22.129092 C9.49804434,22.292439 9.38619501,22.4273359 9.24568795,22.5337868 C9.10518089,22.6402377 8.9443397,22.7191569 8.76315954,22.770547 C8.58197939,22.8219371 8.39525571,22.8476317 8.20298289,22.8476317 C7.92196877,22.8476317 7.65020262,22.7989954 7.38767627,22.7017214 C7.12514993,22.6044473 6.9069975,22.4658797 6.73321246,22.2860145 L7.35439845,21.6583246 C7.45053486,21.7757876 7.57717419,21.8739779 7.73432024,21.9528983 C7.89146629,22.0318188 8.04768561,22.0712784 8.20298289,22.0712784 C8.27323642,22.0712784 8.34164014,22.0639371 8.40819612,22.0492542 C8.47475209,22.0345714 8.5329877,22.010712 8.58290468,21.9776756 C8.63282166,21.9446391 8.67256977,21.9005911 8.7021502,21.8455303 C8.73173064,21.7904695 8.74652063,21.7243976 8.74652063,21.6473124 C8.74652063,21.5738981 8.72803314,21.5114968 8.6910576,21.4601067 C8.65408206,21.4087166 8.6013927,21.3619156 8.53298795,21.3197024 C8.4645832,21.2774891 8.37954073,21.2389471 8.27785799,21.2040753 C8.17617525,21.1692034 8.06062841,21.1315791 7.93121402,21.0912012 C7.80549718,21.0508233 7.68255534,21.0031047 7.56238483,20.9480439 C7.44221432,20.8929831 7.33498686,20.8223228 7.24069923,20.7360609 C7.1464116,20.649799 7.07061288,20.545185 7.01330079,20.4222159 C6.9559887,20.2992468 6.92733308,20.1496672 6.92733308,19.9734727 C6.92733308,19.7569002 6.97170307,19.5715317 7.06044437,19.4173615 C7.14918567,19.2631912 7.26565687,19.1365533 7.40986149,19.0374439 C7.5540661,18.9383345 7.71675604,18.8658388 7.8979362,18.8199548 C8.07911635,18.7740708 8.26214254,18.7511292 8.44702024,18.7511292 C8.66887349,18.7511292 8.89534529,18.7915065 9.12644242,18.8722623 C9.35753956,18.9530182 9.55997761,19.0723148 9.73376266,19.2301557 L9.12921557,19.8633517 Z M12.0132934,19.6541217 L12.0132934,22.7485228 L11.0648755,22.7485228 L11.0648755,19.6541217 L9.9556148,19.6541217 L9.9556148,18.8502381 L13.1225541,18.8502381 L13.1225541,19.6541217 L12.0132934,19.6541217 Z M19.0349136,20.7828623 C19.0349136,21.0912028 18.9812999,21.3729263 18.8740708,21.6280413 C18.7668418,21.8831563 18.6180174,22.1015608 18.4275934,22.2832614 C18.2371694,22.4649621 18.0106976,22.605365 17.7481712,22.7044744 C17.4856449,22.8035838 17.2009375,22.8531378 16.8940405,22.8531378 C16.5871435,22.8531378 16.3033605,22.8035838 16.0426829,22.7044744 C15.7820053,22.605365 15.5564579,22.4649621 15.3660339,22.2832614 C15.1756098,22.1015608 15.0267855,21.8831563 14.9195564,21.6280413 C14.8123274,21.3729263 14.7587136,21.0912028 14.7587136,20.7828623 C14.7587136,20.4708511 14.8123274,20.1891276 14.9195564,19.9376834 C15.0267855,19.6862391 15.1756098,19.4724229 15.3660339,19.2962283 C15.5564579,19.1200338 15.7820053,18.9842192 16.0426829,18.8887805 C16.3033605,18.7933418 16.5871435,18.7456231 16.8940405,18.7456231 C17.2009375,18.7456231 17.4856449,18.7933418 17.7481712,18.8887805 C18.0106976,18.9842192 18.2371694,19.1200338 18.4275934,19.2962283 C18.6180174,19.4724229 18.7668418,19.6862391 18.8740708,19.9376834 C18.9812999,20.1891276 19.0349136,20.4708511 19.0349136,20.7828623 Z M18.0199401,20.7828623 C18.0199401,20.6140092 17.9922089,20.4561706 17.9367455,20.3093419 C17.8812822,20.1625131 17.8045591,20.0367928 17.706574,19.9321773 C17.6085888,19.8275618 17.4902688,19.7449718 17.3516105,19.684405 C17.2129522,19.6238381 17.0604304,19.5935551 16.8940405,19.5935551 C16.7276505,19.5935551 16.5760531,19.6238381 16.4392436,19.684405 C16.3024341,19.7449718 16.1841141,19.8275618 16.0842802,19.9321773 C15.9844462,20.0367928 15.9077231,20.1625131 15.8541086,20.3093419 C15.800494,20.4561706 15.7736872,20.6140092 15.7736872,20.7828623 C15.7736872,20.9590569 15.8014184,21.1214838 15.8568817,21.2701479 C15.912345,21.418812 15.9890681,21.5463676 16.0870533,21.6528185 C16.1850385,21.7592694 16.3024341,21.842777 16.4392436,21.9033439 C16.5760531,21.9639107 16.7276505,21.9941937 16.8940405,21.9941937 C17.0604304,21.9941937 17.2120279,21.9639107 17.3488374,21.9033439 C17.4856469,21.842777 17.6039668,21.7592694 17.7038008,21.6528185 C17.8036348,21.5463676 17.8812822,21.418812 17.9367455,21.2701479 C17.9922089,21.1214838 18.0199401,20.9590569 18.0199401,20.7828623 Z M20.5989712,19.6541217 L20.5989712,20.4580053 L22.1186584,20.4580053 L22.1186584,21.2343586 L20.5989712,21.2343586 L20.5989712,22.7485228 L19.6616459,22.7485228 L19.6616459,18.8502381 L22.2462234,18.8502381 L22.2462234,19.6541217 L20.5989712,19.6541217 Z M27.3044522,21.6142761 C27.3044522,21.8271779 27.2619309,22.0061228 27.1768872,22.1511162 C27.0918434,22.2961096 26.9790697,22.4126532 26.8385627,22.5007505 C26.6980556,22.5888478 26.5381388,22.6521667 26.3588074,22.6907093 C26.179476,22.7292518 25.9955255,22.7485228 25.8069502,22.7485228 L24.2428926,22.7485228 L24.2428926,18.8502381 L25.8069502,18.8502381 C25.9585499,18.8502381 26.1138449,18.8658384 26.2728397,18.8970396 C26.4318345,18.9282407 26.576037,18.9814653 26.7054514,19.0567151 C26.8348658,19.1319648 26.9402445,19.2338258 27.0215907,19.3623009 C27.1029369,19.4907761 27.1436094,19.6541207 27.1436094,19.8523396 C27.1436094,20.068912 27.0844494,20.2478569 26.9661277,20.3891796 C26.8478059,20.5305023 26.692511,20.6323632 26.5002382,20.6947655 L26.5002382,20.7057776 C26.6111648,20.7241312 26.7156191,20.7580848 26.8136043,20.8076395 C26.9115895,20.8571943 26.996632,20.9205132 27.0687343,20.9975983 C27.1408366,21.0746834 27.1981478,21.1646147 27.2406697,21.2673949 C27.2831916,21.370175 27.3044522,21.485801 27.3044522,21.6142761 Z M26.2284693,19.9789787 C26.2284693,19.8468328 26.1776287,19.7504779 26.0759459,19.689911 C25.9742632,19.6293441 25.8235901,19.5990612 25.6239222,19.5990612 L25.1580327,19.5990612 L25.1580327,20.4029447 L25.6682926,20.4029447 C25.8457752,20.4029447 25.9835071,20.3671558 26.0814922,20.2955767 C26.1794774,20.2239977 26.2284693,20.1184661 26.2284693,19.9789787 Z M26.3560343,21.5261793 C26.3560343,21.3646676 26.2950255,21.2527124 26.1730063,21.1903101 C26.050987,21.1279079 25.888297,21.0967073 25.6849315,21.0967073 L25.1580327,21.0967073 L25.1580327,21.9886877 L25.6904779,21.9886877 C25.7644289,21.9886877 25.841152,21.982264 25.9206494,21.9694165 C26.0001469,21.956569 26.0722481,21.9336273 26.1369553,21.9005908 C26.2016625,21.8675544 26.2543518,21.8207534 26.2950249,21.7601865 C26.335698,21.6996196 26.3560343,21.621618 26.3560343,21.5261793 Z M32.0243565,20.7828623 C32.0243565,21.0912028 31.9707427,21.3729263 31.8635137,21.6280413 C31.7562846,21.8831563 31.6074603,22.1015608 31.4170362,22.2832614 C31.2266122,22.4649621 31.0001404,22.605365 30.737614,22.7044744 C30.4750877,22.8035838 30.1903803,22.8531378 29.8834833,22.8531378 C29.5765863,22.8531378 29.2928033,22.8035838 29.0321257,22.7044744 C28.7714481,22.605365 28.5459007,22.4649621 28.3554767,22.2832614 C28.1650526,22.1015608 28.0162283,21.8831563 27.9089993,21.6280413 C27.8017702,21.3729263 27.7481565,21.0912028 27.7481565,20.7828623 C27.7481565,20.4708511 27.8017702,20.1891276 27.9089993,19.9376834 C28.0162283,19.6862391 28.1650526,19.4724229 28.3554767,19.2962283 C28.5459007,19.1200338 28.7714481,18.9842192 29.0321257,18.8887805 C29.2928033,18.7933418 29.5765863,18.7456231 29.8834833,18.7456231 C30.1903803,18.7456231 30.4750877,18.7933418 30.737614,18.8887805 C31.0001404,18.9842192 31.2266122,19.1200338 31.4170362,19.2962283 C31.6074603,19.4724229 31.7562846,19.6862391 31.8635137,19.9376834 C31.9707427,20.1891276 32.0243565,20.4708511 32.0243565,20.7828623 Z M31.0093829,20.7828623 C31.0093829,20.6140092 30.9816517,20.4561706 30.9261884,20.3093419 C30.870725,20.1625131 30.794002,20.0367928 30.6960168,19.9321773 C30.5980316,19.8275618 30.4797116,19.7449718 30.3410533,19.684405 C30.2023951,19.6238381 30.0498732,19.5935551 29.8834833,19.5935551 C29.7170934,19.5935551 29.5654959,19.6238381 29.4286864,19.684405 C29.2918769,19.7449718 29.173557,19.8275618 29.073723,19.9321773 C28.973889,20.0367928 28.8971659,20.1625131 28.8435514,20.3093419 C28.7899369,20.4561706 28.76313,20.6140092 28.76313,20.7828623 C28.76313,20.9590569 28.7908612,21.1214838 28.8463245,21.2701479 C28.9017879,21.418812 28.978511,21.5463676 29.0764961,21.6528185 C29.1744813,21.7592694 29.2918769,21.842777 29.4286864,21.9033439 C29.5654959,21.9639107 29.7170934,21.9941937 29.8834833,21.9941937 C30.0498732,21.9941937 30.2014707,21.9639107 30.3382802,21.9033439 C30.4750897,21.842777 30.5934097,21.7592694 30.6932436,21.6528185 C30.7930776,21.5463676 30.870725,21.418812 30.9261884,21.2701479 C30.9816517,21.1214838 31.0093829,20.9590569 31.0093829,20.7828623 Z M34.3316187,19.6541217 L34.3316187,22.7485228 L33.3832008,22.7485228 L33.3832008,19.6541217 L32.2739401,19.6541217 L32.2739401,18.8502381 L35.4408794,18.8502381 L35.4408794,19.6541217 L34.3316187,19.6541217 Z M38.3526888,22.7485228 L38.3526888,21.1187315 L36.821909,21.1187315 L36.821909,22.7485228 L35.8734911,22.7485228 L35.8734911,18.8502381 L36.821909,18.8502381 L36.821909,20.32586 L38.3526888,20.32586 L38.3526888,18.8502381 L39.3011067,18.8502381 L39.3011067,22.7485228 L38.3526888,22.7485228 Z M45.6571705,22.7485228 L44.7198452,22.7485228 L43.9433627,20.111124 L43.9267238,20.111124 L43.1502413,22.7485228 L42.2073697,22.7485228 L41.0925627,18.8502381 L42.1130825,18.8502381 L42.7342685,21.4435885 L42.7509074,21.4435885 L43.4497417,18.8502381 L44.4369837,18.8502381 L45.1413643,21.4435885 L45.1580032,21.4435885 L45.7902818,18.8502381 L46.7775238,18.8502381 L45.6571705,22.7485228 Z M51.2755759,20.7828623 C51.2755759,21.0912028 51.2219622,21.3729263 51.1147331,21.6280413 C51.0075041,21.8831563 50.8586797,22.1015608 50.6682557,22.2832614 C50.4778317,22.4649621 50.2513599,22.605365 49.9888335,22.7044744 C49.7263072,22.8035838 49.4415998,22.8531378 49.1347028,22.8531378 C48.8278058,22.8531378 48.5440228,22.8035838 48.2833452,22.7044744 C48.0226676,22.605365 47.7971202,22.4649621 47.6066962,22.2832614 C47.4162721,22.1015608 47.2674478,21.8831563 47.1602187,21.6280413 C47.0529897,21.3729263 46.9993759,21.0912028 46.9993759,20.7828623 C46.9993759,20.4708511 47.0529897,20.1891276 47.1602187,19.9376834 C47.2674478,19.6862391 47.4162721,19.4724229 47.6066962,19.2962283 C47.7971202,19.1200338 48.0226676,18.9842192 48.2833452,18.8887805 C48.5440228,18.7933418 48.8278058,18.7456231 49.1347028,18.7456231 C49.4415998,18.7456231 49.7263072,18.7933418 49.9888335,18.8887805 C50.2513599,18.9842192 50.4778317,19.1200338 50.6682557,19.2962283 C50.8586797,19.4724229 51.0075041,19.6862391 51.1147331,19.9376834 C51.2219622,20.1891276 51.2755759,20.4708511 51.2755759,20.7828623 Z M50.2606024,20.7828623 C50.2606024,20.6140092 50.2328712,20.4561706 50.1774078,20.3093419 C50.1219445,20.1625131 50.0452214,20.0367928 49.9472362,19.9321773 C49.8492511,19.8275618 49.7309311,19.7449718 49.5922728,19.684405 C49.4536145,19.6238381 49.3010927,19.5935551 49.1347028,19.5935551 C48.9683128,19.5935551 48.8167154,19.6238381 48.6799059,19.684405 C48.5430964,19.7449718 48.4247764,19.8275618 48.3249425,19.9321773 C48.2251085,20.0367928 48.1483854,20.1625131 48.0947709,20.3093419 C48.0411563,20.4561706 48.0143495,20.6140092 48.0143495,20.7828623 C48.0143495,20.9590569 48.0420807,21.1214838 48.097544,21.2701479 C48.1530073,21.418812 48.2297304,21.5463676 48.3277156,21.6528185 C48.4257008,21.7592694 48.5430964,21.842777 48.6799059,21.9033439 C48.8167154,21.9639107 48.9683128,21.9941937 49.1347028,21.9941937 C49.3010927,21.9941937 49.4526902,21.9639107 49.5894997,21.9033439 C49.7263092,21.842777 49.8446291,21.7592694 49.9444631,21.6528185 C50.0442971,21.5463676 50.1219445,21.418812 50.1774078,21.2701479 C50.2328712,21.1214838 50.2606024,20.9590569 50.2606024,20.7828623 Z M54.0043573,22.7485228 L53.1557728,21.2013223 L52.8340872,21.2013223 L52.8340872,22.7485228 L51.9023082,22.7485228 L51.9023082,18.8502381 L53.3998102,18.8502381 C53.5883854,18.8502381 53.772336,18.8695091 53.9516674,18.9080517 C54.1309988,18.9465942 54.2918399,19.0117485 54.4341958,19.1035165 C54.5765516,19.1952845 54.6902497,19.3164164 54.7752934,19.4669159 C54.8603372,19.6174154 54.9028584,19.8046193 54.9028584,20.0285332 C54.9028584,20.292825 54.8307572,20.5149002 54.6865526,20.6947655 C54.542348,20.8746307 54.342683,21.003104 54.0875518,21.0801891 L55.113618,22.7485228 L54.0043573,22.7485228 Z M53.9655331,20.0450514 C53.9655331,19.9532834 53.9461213,19.8789524 53.9072969,19.8220563 C53.8684726,19.7651601 53.8185564,19.7211121 53.7575468,19.689911 C53.6965371,19.6587099 53.6281334,19.6376036 53.5523335,19.6265914 C53.4765337,19.6155793 53.4035081,19.6100733 53.3332545,19.6100733 L52.8285409,19.6100733 L52.8285409,20.5185718 L53.2777915,20.5185718 C53.3554401,20.5185718 53.4349364,20.5121482 53.5162826,20.4993006 C53.5976287,20.4864531 53.6715787,20.4635115 53.7381347,20.430475 C53.8046907,20.3974385 53.8592288,20.3497199 53.9017506,20.2873176 C53.9442725,20.2249154 53.9655331,20.1441608 53.9655331,20.0450514 Z M55.5795075,22.7485228 L55.5795075,18.8502381 L56.5334717,18.8502381 L56.5334717,21.9281211 L58.0531588,21.9281211 L58.0531588,22.7485228 L55.5795075,22.7485228 Z M62.1629697,20.7883684 C62.1629697,21.1297453 62.0991879,21.4243161 61.9716222,21.6720897 C61.8440566,21.9198633 61.6758204,22.1235851 61.4669086,22.2832614 C61.2579968,22.4429377 61.0222813,22.560399 60.7597549,22.6356488 C60.4972286,22.7108985 60.2310087,22.7485228 59.9610872,22.7485228 L58.4968631,22.7485228 L58.4968631,18.8502381 L59.9167168,18.8502381 C60.1940334,18.8502381 60.4676483,18.8823564 60.7375697,18.946594 C61.0074912,19.0108316 61.2478286,19.1172809 61.4585892,19.265945 C61.6693498,19.4146092 61.8394347,19.6137427 61.9688491,19.8633517 C62.0982635,20.1129606 62.1629697,20.4212964 62.1629697,20.7883684 Z M61.1757277,20.7883684 C61.1757277,20.5681252 61.1396771,20.3855096 61.0675748,20.2405162 C60.9954725,20.0955228 60.8993375,19.9798969 60.779167,19.8936349 C60.6589965,19.807373 60.522189,19.7458894 60.3687405,19.7091822 C60.215292,19.672475 60.057224,19.6541217 59.8945316,19.6541217 L59.4230958,19.6541217 L59.4230958,21.9336271 L59.8723464,21.9336271 C60.0424339,21.9336271 60.2060482,21.9143562 60.3631942,21.8758136 C60.5203403,21.837271 60.6589965,21.7739521 60.779167,21.6858548 C60.8993375,21.5977575 60.9954725,21.4802963 61.0675748,21.3334675 C61.1396771,21.1866387 61.1757277,21.0049408 61.1757277,20.7883684 Z M64.8640195,19.8633517 C64.7826733,19.7605715 64.6763703,19.6788992 64.5451071,19.6183323 C64.4138439,19.5577655 64.2872046,19.5274825 64.1651853,19.5274825 C64.1023269,19.5274825 64.038545,19.5329885 63.9738378,19.5440006 C63.9091306,19.5550128 63.850895,19.5761191 63.7991293,19.6073202 C63.7473635,19.6385214 63.7039179,19.6788987 63.6687911,19.7284534 C63.6336644,19.7780081 63.6161012,19.8413271 63.6161012,19.9184122 C63.6161012,19.9844851 63.6299669,20.0395451 63.6576985,20.0835937 C63.6854302,20.1276424 63.7261027,20.1661843 63.7797172,20.1992208 C63.8333317,20.2322573 63.8971136,20.2625403 63.9710647,20.2900707 C64.0450157,20.3176011 64.1282095,20.3460487 64.2206483,20.3754145 C64.3537603,20.4194631 64.4924165,20.4680994 64.6366211,20.5213248 C64.7808257,20.5745503 64.9120869,20.6452106 65.0304086,20.7333078 C65.1487304,20.8214051 65.2467141,20.9306074 65.3243627,21.0609179 C65.4020114,21.1912285 65.4408351,21.3536554 65.4408351,21.5482035 C65.4408351,21.7721174 65.3992382,21.965745 65.3160433,22.129092 C65.2328483,22.292439 65.120999,22.4273359 64.9804919,22.5337868 C64.8399848,22.6402377 64.6791437,22.7191569 64.4979635,22.770547 C64.3167833,22.8219371 64.1300597,22.8476317 63.9377868,22.8476317 C63.6567727,22.8476317 63.3850066,22.7989954 63.1224802,22.7017214 C62.8599539,22.6044473 62.6418015,22.4658797 62.4680164,22.2860145 L63.0892024,21.6583246 C63.1853388,21.7757876 63.3119781,21.8739779 63.4691242,21.9528983 C63.6262702,22.0318188 63.7824896,22.0712784 63.9377868,22.0712784 C64.0080404,22.0712784 64.0764441,22.0639371 64.1430001,22.0492542 C64.209556,22.0345714 64.2677917,22.010712 64.3177086,21.9776756 C64.3676256,21.9446391 64.4073737,21.9005911 64.4369542,21.8455303 C64.4665346,21.7904695 64.4813246,21.7243976 64.4813246,21.6473124 C64.4813246,21.5738981 64.4628371,21.5114968 64.4258616,21.4601067 C64.388886,21.4087166 64.3361967,21.3619156 64.2677919,21.3197024 C64.1993871,21.2774891 64.1143447,21.2389471 64.0126619,21.2040753 C63.9109792,21.1692034 63.7954324,21.1315791 63.666018,21.0912012 C63.5403011,21.0508233 63.4173593,21.0031047 63.2971888,20.9480439 C63.1770183,20.8929831 63.0697908,20.8223228 62.9755032,20.7360609 C62.8812156,20.649799 62.8054168,20.545185 62.7481047,20.4222159 C62.6907927,20.2992468 62.662137,20.1496672 62.662137,19.9734727 C62.662137,19.7569002 62.706507,19.5715317 62.7952483,19.4173615 C62.8839896,19.2631912 63.0004608,19.1365533 63.1446654,19.0374439 C63.2888701,18.9383345 63.45156,18.8658388 63.6327402,18.8199548 C63.8139203,18.7740708 63.9969465,18.7511292 64.1818242,18.7511292 C64.4036774,18.7511292 64.6301492,18.7915065 64.8612464,18.8722623 C65.0923435,18.9530182 65.2947816,19.0723148 65.4685666,19.2301557 L64.8640195,19.8633517 Z" id="BEST-OF-BOTH-WORLDS"></path>
                </g>
            </g>
        </g>
    </g>
</svg>