<?xml version="1.0" encoding="UTF-8"?>
<svg width="174px" height="87px" viewBox="0 0 174 87" version="1.1" xmlns="http://www.w3.org/2000/svg" xmlns:xlink="http://www.w3.org/1999/xlink">
    <!-- Generator: Sketch 48.2 (47327) - http://www.bohemiancoding.com/sketch -->
    <title>Disney_Magic_Wheels_logo</title>
    <desc>Created with Sketch.</desc>
    <defs>
        <linearGradient x1="50%" y1="6.87058972%" x2="50%" y2="127.198841%" id="linearGradient-1">
            <stop stop-color="#86F0FE" offset="0%"></stop>
            <stop stop-color="#34C8EB" offset="51.3831314%"></stop>
            <stop stop-color="#86F0FE" offset="100%"></stop>
        </linearGradient>
        <linearGradient x1="50%" y1="0%" x2="50%" y2="100%" id="linearGradient-2">
            <stop stop-color="#FFB911" offset="0%"></stop>
            <stop stop-color="#E06900" offset="100%"></stop>
        </linearGradient>
    </defs>
    <g id="Desktop" stroke="none" stroke-width="1" fill="none" fill-rule="evenodd" transform="translate(-122.000000, -30.000000)">
        <g id="Head">
            <g id="Disney_Magic_Wheels_logo" transform="translate(122.000000, 30.000000)">
                <g id="Logo">
                    <path d="M34.4633819,56.7302761 C33.9838932,55.5784904 33.4582884,54.3176484 32.8865676,52.9477501 C32.0229967,50.8785589 29.8875502,49.6372536 27.6621418,49.910867 L24.0235044,50.3582366 C20.8474463,50.7487322 17.6259523,50.5258494 14.5339315,49.7016896 L1.65639657,46.2692591 C0.495086243,45.9597187 -0.195409731,44.7673587 0.114130644,43.6060483 C0.118586871,43.5893298 0.123242329,43.572665 0.128096025,43.5560575 L0.741266498,41.4580215 C0.74928646,41.4305802 0.757541631,41.4032083 0.7660311,41.3759086 L10.6892796,9.46563858 C11.5092754,6.82877149 14.3116165,5.35590631 16.9484836,6.17590211 C17.8617827,6.45991393 18.674461,6.99991518 19.2901249,7.73185502 L24.0150753,13.3491722 C25.7926133,15.4624208 28.9467191,15.734568 31.0599677,13.95703 C31.3660907,13.6995377 31.6402077,13.4062398 31.8764395,13.083427 L35.3946553,8.27575402 C37.0254263,6.04729107 40.1539535,5.56276599 42.3824165,7.19353697 C43.1792901,7.77668255 43.7856525,8.58272574 44.1250411,9.51002379 L46.2806413,15.3996861 C47.2229339,17.9742753 50.07393,19.2975132 52.6485192,18.3552206 C53.7754945,17.9427507 54.7148954,17.1359865 55.2928581,16.0842432 L56.9969656,12.9832065 C58.326871,10.5631212 61.3668391,9.67935581 63.7869244,11.0092612 C64.3437117,11.3152316 64.8370858,11.7245114 65.2406424,12.2151966 L69.6165478,17.5358696 C71.3706136,19.6686417 74.5215182,19.9756437 76.6542902,18.221578 C76.7031884,18.1813624 76.7513183,18.1402217 76.798654,18.0981782 C79.8416748,15.395367 82.7866159,13.8108301 85.6334772,13.3445677 C89.1913337,12.7618576 93.5951233,14.0060475 98.8448461,17.0771372 L98.8448529,17.0771257 C99.4362409,17.4230879 100.196113,17.224131 100.542076,16.632743 C100.65325,16.4427009 100.711845,16.2264952 100.711845,16.006323 C100.711845,14.7818421 101.704483,13.7892041 102.928964,13.7892041 L112.131897,13.7892041 C114.558552,13.7892041 116.525744,15.7563966 116.525744,18.1830515 C116.525744,19.0024338 117.189985,19.6666745 118.009367,19.6666745 C118.354862,19.6666745 118.689525,19.5460957 118.955625,19.325738 C121.210468,17.4584725 124.715623,16.2403711 129.471075,15.6714154 C135.248447,14.9801942 140.16787,16.5686341 144.229344,20.436735 C145.905504,22.03309 146.266841,24.5712256 145.10277,26.5719248 L141.473231,32.8100422 C140.518942,34.4501872 140.575331,36.489183 141.618809,38.0740793 L144.265689,42.0943093 C145.529586,44.0139901 145.321974,46.5480555 143.762476,48.2364202 C142.221263,49.904989 140.559967,51.2176004 138.778587,52.1742543 C139.250559,53.1849045 140.276041,53.8852032 141.465087,53.8852032 L144.138823,53.8852032 C145.800906,53.8852032 147.354342,53.0592863 148.283843,51.6814087 C149.035311,50.5674566 150.309867,49.3264571 152.107513,47.9584099 C154.038232,46.4890908 156.668131,45.5864455 159.997208,45.2504739 C160.539782,45.1957172 161.08766,45.2300898 161.619136,45.3522301 C164.310408,45.9707203 165.99073,48.653813 165.372234,51.3450842 C164.909797,53.357316 164.557712,54.8292115 164.31598,55.7607707 C163.654075,58.3115424 167.331324,58.7616786 169.537673,59.8870191 C171.744023,61.0123596 175.200637,63.8632222 173.582648,70.6152651 C172.668456,74.4302829 170.010964,77.0597487 165.610172,78.5036623 C164.180354,78.9727899 162.655729,79.0759145 161.175761,78.8036013 C158.439478,78.3001296 155.931543,77.946403 153.651957,77.7424215 C151.196232,77.5226788 146.809791,77.7084231 140.492636,78.2996544 C138.788997,78.4591004 137.12213,77.7362928 136.074175,76.3836661 L135.663816,75.854009 C134.716805,74.6316741 133.257537,73.9162639 131.711273,73.9162639 L128.753045,73.9162639 C127.119457,73.9162639 125.588882,74.7142787 124.653611,76.0536365 L123.814318,77.2555483 C122.879047,78.5949061 121.348472,79.3929209 119.714883,79.3929209 L110.334772,79.3929209 C109.151217,79.3929209 108.010201,78.9515376 107.134756,78.1550464 C107.045585,78.0739178 106.946468,78.0044477 106.839785,77.9483049 C106.144209,77.5822518 105.283589,77.8493827 104.917536,78.5449585 L103.93829,80.4057273 C102.870041,82.4356191 100.520089,83.4325051 98.3181211,82.7898905 L82.5820624,78.1975337 C80.0979168,77.4725693 77.4710768,78.7628471 76.5263887,81.1720206 L75.4000959,84.0443283 C75.1132354,84.7758891 74.6328231,85.4156642 74.0102881,85.8951644 C72.1145581,87.3553279 69.3940688,87.0022315 67.9339053,85.1065015 L64.350015,80.4535375 C64.1077268,80.1389748 63.8288319,79.8543921 63.5192242,79.6058034 C61.3659796,77.8769313 58.2189022,78.2209531 56.4900301,80.3741977 L53.2471889,84.4130331 C52.6969349,85.0983535 51.975759,85.6265255 51.1563389,85.9443215 C48.5817595,86.9428215 45.6852064,85.6651567 44.6867064,83.0905773 L34.4633819,56.7302761 Z" id="BG" fill="#FFFFFF"></path>
                    <g id="Magic" transform="translate(6.025974, 12.000000)" fill="url(#linearGradient-1)">
                        <path d="M32.4564221,32.2411173 L30.6203657,27.3328503 C30.1366151,26.0396563 28.6961169,25.3834728 27.402923,25.8672234 C26.9557385,26.0345036 26.5658067,26.3263383 26.279235,26.7082196 L24.8497407,28.6131427 C24.0210161,29.717489 22.4539525,29.9409245 21.3496062,29.1121999 C21.1921497,28.9940413 21.0492006,28.8576982 20.9237297,28.7060043 L18.3791412,25.6296061 C17.4991305,24.5656764 15.9232554,24.4165805 14.8593257,25.2965912 C14.4486187,25.6363003 14.1572314,26.0983791 14.0276892,26.615391 L12.7314023,31.7889651 C12.3958255,33.128276 11.0380609,33.9419632 9.69875001,33.6063865 C9.62837594,33.5887536 9.55880279,33.5680657 9.49022809,33.5443816 L1.92346523,30.9309941 C0.654788087,30.4928219 -0.0414933963,29.1310267 0.346117661,27.8459997 L8.18606266,1.85463466 C8.58479153,0.532749427 9.97962485,-0.215616672 11.3015101,0.183112194 C11.7468864,0.317453961 12.1459454,0.573398247 12.4538013,0.922156755 L20.5253292,10.0660892 C21.4390514,11.101211 23.0189015,11.1996247 24.0540233,10.2859025 C24.1811225,10.1737096 24.2964798,10.0488792 24.3983143,9.91333885 L30.7499994,1.45932226 C31.5793599,0.355453411 33.146552,0.132920424 34.2504208,0.962280924 C34.6323355,1.24922164 34.9240461,1.6395747 35.0910249,2.08713679 L44.5204765,27.361388 C44.9881508,28.6149197 44.3860162,30.0144574 43.1542772,30.5368366 L35.7740517,33.6667825 C34.5029279,34.2058647 33.035466,33.6124278 32.4963837,32.3413041 C32.4823442,32.3081998 32.4690206,32.2747964 32.4564221,32.2411173 Z" id="Fill-16"></path>
                        <path d="M57.139022,16.5486532 L56.8511096,16.0216225 C56.6523851,15.6578524 56.1963932,15.5240565 55.8326231,15.722781 C55.6671845,15.8131587 55.5418149,15.9624841 55.4814391,16.1410697 L55.3976811,16.3888177 C55.2095403,16.9453197 55.508156,17.548972 56.0646581,17.7371128 C56.167575,17.7719067 56.275215,17.7907283 56.3838322,17.7929227 L56.3838322,17.7929227 C56.8483024,17.8023065 57.2324369,17.433386 57.2418207,16.9689158 C57.2447836,16.8222614 57.2093451,16.6773815 57.139022,16.5486532 Z M50.3955249,25.4608115 L47.509241,24.5552196 C46.1918515,24.1418794 45.4589748,22.7388457 45.872315,21.4214562 C45.9061576,21.3135937 45.9472774,21.208151 45.9953911,21.1058539 L53.0779262,6.04731952 C53.6655688,4.79790306 55.1547994,4.26142933 56.4042159,4.8490719 C56.8392866,5.05370032 57.2061236,5.37944292 57.4607651,5.78726281 L66.4406602,20.1689705 C67.1466142,21.2995876 66.8413883,22.785225 65.7468598,23.545931 L63.8586503,24.8582516 C63.0757721,25.4023582 62.0000383,25.2087955 61.4559317,24.4259173 C61.4189652,24.3727287 61.3850216,24.3175017 61.354262,24.2604983 L61.1437639,23.8704051 C60.7080547,23.0629528 59.8650522,22.5590483 58.9475449,22.5576157 L55.1065137,22.5516186 C54.0340463,22.5499441 53.0799899,23.232496 52.7352723,24.2480544 L52.7250475,24.2781773 C52.3986718,25.2396992 51.3643604,25.7647905 50.3955249,25.4608115 Z" id="Fill-18"></path>
                        <path d="M92.3072726,30.0874098 C89.5725454,32.0205703 86.4905084,32.9057605 83.0607741,32.7441687 C81.0957819,32.6637689 79.2252642,32.2237482 77.4496081,31.4245026 C75.7370641,30.6581298 74.2336031,29.612536 72.9396121,28.2865329 C71.6460084,26.9605298 70.6594468,25.4665979 69.9807017,23.8043414 C69.2767892,22.0656455 68.9546466,20.2663528 69.0138868,18.4060671 C69.0835811,16.5473656 69.5234296,14.789659 70.3342067,13.1325512 C71.1256242,11.5225743 72.2128554,10.1157753 73.5959002,8.91215418 C76.5079606,6.37025217 79.9678957,5.18762217 83.9745439,5.36426416 C85.9708986,5.4407034 87.8603887,5.88428867 89.6441757,6.69541602 C91.3718201,7.48515622 92.8857353,8.5541175 94.1855341,9.90150775 L90.2903968,15.068484 C89.1164349,14.1044782 87.7461674,13.5864339 86.1795943,13.5151434 C84.4147796,13.4343476 82.8900231,13.9234795 81.6041631,14.9833315 C80.3287573,16.0451637 79.6635639,17.3636417 79.60897,18.9387655 C79.5543762,20.5134932 80.135162,21.8842508 81.3493917,23.0506425 C82.554716,24.2158459 84.0388176,24.8435983 85.8016963,24.9342956 L86.1368646,23.9314547 C86.4459799,23.0065654 85.9467966,22.006207 85.0219073,21.6970916 C84.9596746,21.6762923 84.896331,21.6589781 84.8321711,21.6452297 L84.8321711,21.6452297 C83.8383669,21.432273 83.2053649,20.454 83.4183216,19.4601959 C83.4273533,19.4180477 83.4378631,19.3762299 83.4498314,19.3348198 L83.8463913,17.9627369 C84.2093977,16.7067475 85.4788325,15.9425594 86.7586716,16.2095709 L91.9229305,17.2869849 C93.227996,17.5592594 94.0898051,18.8077001 93.8817074,20.1245237 L92.3072726,30.0874098 Z" id="Fill-20"></path>
                        <path d="M97.4799776,34.7509878 L97.230526,10.9324464 C97.2160666,9.55181025 98.3235717,8.42086184 99.7042079,8.40640244 C99.7297049,8.40613541 99.7552045,8.40625848 99.7806977,8.40677159 L104.944778,8.51071198 C106.32521,8.53849673 107.421748,9.68008219 107.393963,11.0605145 C107.393879,11.064687 107.393784,11.0688594 107.39368,11.0730315 L106.797132,34.8037241 C106.762958,36.1631532 105.648454,37.2459485 104.288605,37.240881 L99.9705242,37.2247894 C98.6036643,37.2196957 97.4942921,36.1177822 97.4799776,34.7509878 Z" id="Fill-22"></path>
                        <path d="M133.873021,33.6466818 C132.393167,34.8161569 130.743564,35.6660362 128.923433,36.1963196 C127.039452,36.7594736 125.102132,36.9325385 123.111473,36.7159103 C121.153129,36.4996782 119.311974,35.9309799 117.58723,35.0110034 C115.926726,34.1009276 114.50021,32.937393 113.308463,31.5188153 C112.094912,30.0788521 111.211516,28.4816652 110.657885,26.7280466 C110.08323,24.9197759 109.89674,23.0631897 110.099193,21.1570997 C110.301256,19.2624946 110.8654,17.4922428 111.791622,15.8463442 C112.707333,14.2547017 113.898691,12.8852317 115.368033,11.7375383 C118.486589,9.31225366 122.047037,8.31623949 126.049378,8.74909973 C129.466163,9.11740715 132.393167,10.4868771 134.831169,12.8579057 L131.174555,18.542513 C130.152557,17.7302565 128.981833,17.253833 127.662384,17.1132426 C125.895203,16.9183961 124.335925,17.3243263 122.983772,18.3310333 C121.621107,19.3274435 120.854511,20.6323606 120.685151,22.2449927 C120.514234,23.8588129 120.988441,25.2983801 122.105437,26.5652784 C123.234113,27.8432656 124.676202,28.5794844 126.432871,28.7743309 C128.008112,28.9473958 129.44475,28.6226517 130.743564,27.7997024 L133.873021,33.6466818 Z" id="Fill-24"></path>
                    </g>
                    <g id="Wheels" transform="translate(37.913420, 44.750000)" fill="url(#linearGradient-2)">
                        <path d="M44.3332642,4.36565921 L35.1850844,34.4606484 C34.9843035,35.1211621 34.2860863,35.4938492 33.6255726,35.2930683 C33.3646726,35.2137608 33.136863,35.0513137 32.976874,34.8304925 L23.7927291,22.1542905 C23.387689,21.5952433 22.6061418,21.4703959 22.0470945,21.8754361 C21.9270064,21.9624421 21.8233584,22.0701228 21.7409972,22.1934429 L12.4051703,36.1720482 C12.0217534,36.7461412 11.2455382,36.9007148 10.6714452,36.5172979 C10.4471163,36.3674764 10.2772738,36.1491045 10.1872849,35.8947977 L0.0998799544,7.38798227 C-0.123417684,6.75694737 0.190018463,6.06200755 0.810830087,5.81168814 L10.9588053,1.71989111 C11.5990729,1.46172682 12.3273958,1.77148271 12.58556,2.41175025 C12.5997225,2.44687415 12.6122813,2.48262354 12.6231978,2.51888776 L15.0406354,10.5495746 C15.2396293,11.2106289 15.936836,11.5852028 16.5978903,11.386209 C16.8517481,11.3097914 17.074736,11.1546416 17.2346323,10.9431786 L22.0281778,4.60371102 C22.4445532,4.05305427 23.2284876,3.9441977 23.7791444,4.36057308 C23.8799975,4.43683247 23.9686966,4.52795211 24.0422138,4.63082131 L27.2299963,9.0913399 C27.631399,9.65300451 28.4121194,9.78292238 28.973784,9.3815196 C29.1926627,9.22509437 29.3552339,9.002227 29.4373411,8.74603344 L31.8832544,1.11421525 C32.084174,0.487299253 32.7368936,0.123666646 33.375705,0.282765184 L43.4393878,2.78916565 C44.1092803,2.95600505 44.5170854,3.63431026 44.350246,4.30420274 C44.3451088,4.32482929 44.3394464,4.34532144 44.3332642,4.36565921 Z" id="Fill-26"></path>
                        <path d="M56.8034531,8.42277292 L55.068913,14.3611598 C54.8899622,14.9738172 55.2013173,15.6228918 55.7911423,15.8667747 L58.0353578,16.7947205 C58.6733281,17.0585106 59.4043494,16.7551777 59.6681395,16.1172074 C59.6790651,16.0907841 59.6890808,16.0639938 59.698169,16.0368836 L61.9945757,9.18670446 C62.2136196,8.5332968 62.920174,8.18043358 63.5741229,8.39785642 L68.6869939,10.0977676 C69.3279228,10.3108616 69.6836536,10.9945567 69.4903226,11.6417212 L63.3069035,32.3403672 C63.1092987,33.0018381 62.4128803,33.3778758 61.7514094,33.180271 C61.744675,33.1782592 61.7379577,33.1761906 61.7312582,33.1740655 L55.8772645,31.3171559 C55.2192209,31.1084219 54.8549834,30.4057598 55.0637175,29.7477161 C55.0660027,29.7405117 55.0683533,29.7333281 55.0707689,29.7261662 L56.8739612,24.3799922 C57.0880683,23.7451994 56.7636637,23.0544736 56.1384272,22.8138848 L54.2258159,22.0779187 C53.5815144,21.8299937 52.8582218,22.1513204 52.6102968,22.795622 C52.5981959,22.8270696 52.5873715,22.8589936 52.5778502,22.8913158 L50.7185225,29.2031851 C50.5234477,29.8654065 49.8284719,30.2441036 49.1662505,30.0490288 C49.1546829,30.0456213 49.1431653,30.0420465 49.1317012,30.0383057 L43.6222354,28.2405216 C42.9879674,28.0335548 42.6280399,27.3649497 42.8045244,26.7215336 L48.4510579,6.13576483 C48.6331604,5.4718672 49.3177839,5.08017461 49.982399,5.25964101 L55.9294563,6.86552839 C56.5959408,7.0454996 56.9903378,7.7316876 56.8103666,8.39817217 C56.808146,8.40639576 56.8058414,8.41459644 56.8034531,8.42277292 Z" id="Fill-28"></path>
                        <path d="M82.1376253,29.8753365 L72.7511,29.9897395 C72.0607953,29.998153 71.4943724,29.4453709 71.4859589,28.7550662 C71.4858856,28.7490545 71.4858557,28.7430423 71.4858692,28.7370301 L71.520876,13.1216186 C71.5223885,12.4469311 72.0590442,11.8951912 72.7334307,11.8749817 L82.40131,11.5852624 C83.0883285,11.5646744 83.6630814,12.1026248 83.6879347,12.7895022 L83.7781265,15.2821527 C83.8030893,15.9720572 83.2640477,16.5515717 82.5741432,16.5765346 C82.5507443,16.5773812 82.5273262,16.5775702 82.5039167,16.5771014 L78.0880089,16.4886694 C77.5556342,16.4780082 77.1154166,16.9009405 77.1047554,17.4333152 C77.1043714,17.4524886 77.1045596,17.4716692 77.1053196,17.4908314 L77.1053196,17.4908314 C77.1279962,18.0625392 77.5971812,18.5148208 78.169336,18.5165144 L79.4486066,18.5203013 C80.1171335,18.5222802 80.6657648,19.049923 80.6938063,19.7178644 L80.7776418,21.7147988 C80.8065988,22.4045472 80.2709216,22.9871731 79.5811733,23.0161301 C79.5314206,23.0182188 79.4815875,23.0173327 79.4319405,23.0134764 L78.3145772,22.9266859 C77.7718926,22.8845332 77.2977882,23.2902945 77.2556355,23.8329792 C77.2530667,23.8660509 77.2521691,23.8992312 77.2529463,23.9323934 L77.2529463,23.9323934 C77.267137,24.5379469 77.7632232,25.0208384 78.3689392,25.0187036 L82.048739,25.0057344 C82.7265835,25.0033453 83.2828116,25.5416554 83.3026111,26.2192149 L83.3718581,28.5889177 C83.3920229,29.278979 82.8489645,29.8547311 82.1589031,29.874896 C82.1518119,29.8751032 82.144719,29.87525 82.1376253,29.8753365 Z" id="Fill-30"></path>
                        <path d="M96.8619674,24.9439098 L87.7561702,25.0547015 C87.0658654,25.0631005 86.499454,24.5103067 86.4910549,23.8200018 C86.4909819,23.8140034 86.4909521,23.8080045 86.4909655,23.8020056 L86.5248288,8.62180528 C86.5263339,7.94709566 87.0630173,7.3953402 87.7374266,7.37515331 L97.120071,7.09430541 C97.8070237,7.07374306 98.381727,7.61161066 98.4066481,8.29841898 L98.492679,10.6693758 C98.5177123,11.3592777 97.9787299,11.9388472 97.2888279,11.9638805 C97.2654166,11.96473 97.2419861,11.9649212 97.218564,11.9644538 L92.9369142,11.8790193 C92.4174329,11.8686537 91.9879072,12.2813736 91.9775416,12.8008549 C91.9771675,12.8196031 91.977354,12.8383583 91.9781009,12.8570954 L91.9781009,12.8570954 C92.0003419,13.4150451 92.458283,13.8563802 93.0166734,13.858007 L94.2381784,13.8615656 C94.9067314,13.8635133 95.4553991,14.3911699 95.4834371,15.0591375 L95.56261,16.9453228 C95.5915622,17.6350714 95.055881,18.2176936 94.3661324,18.2466458 C94.316423,18.2487324 94.2666332,18.2478493 94.217029,18.2440011 L93.1580349,18.1618476 C92.6283926,18.1207596 92.1657242,18.5168111 92.1246362,19.0464534 C92.1221339,19.0787084 92.1212606,19.1110691 92.1220194,19.1434122 L92.1220194,19.1434122 C92.1358852,19.7343808 92.6200115,20.2056421 93.2111392,20.2035901 L96.7764499,20.1912142 C97.4542387,20.1888614 98.0104134,20.7271151 98.0302533,21.4046175 L98.0962239,23.6574131 C98.1164316,24.3474732 97.5734088,24.923259 96.8833487,24.9434667 C96.876223,24.9436753 96.8690956,24.943823 96.8619674,24.9439098 Z" id="Fill-32"></path>
                        <path d="M107.823945,12.3031457 L107.335719,22.2120018 C107.301745,22.9015213 107.83317,23.4880285 108.522689,23.5220023 C108.566866,23.5241789 108.611128,23.5240093 108.655287,23.5214941 L112.417181,23.3072228 C113.106419,23.2679649 113.696983,23.7948785 113.736241,24.4841174 C113.737066,24.4985992 113.737638,24.5130944 113.737959,24.5275962 L113.808604,27.7258917 C113.823831,28.415237 113.277988,28.9867247 112.58867,29.0031413 L102.83852,29.2353487 C102.151235,29.2517169 101.57973,28.7100074 101.55931,28.0228309 L101.094848,12.392465 C101.074343,11.7024136 101.617118,11.1263938 102.307169,11.1058887 C102.308351,11.1058536 102.309534,11.1058201 102.310717,11.1057883 L106.54188,10.9920818 C107.231986,10.9735362 107.806463,11.517944 107.825008,12.2080508 C107.82586,12.2397511 107.825505,12.2714724 107.823945,12.3031457 Z" id="Fill-34"></path>
                        <path d="M127.650735,5.74708221 L125.773274,10.8760897 C123.925179,10.1780511 122.710239,10.2329709 122.128063,11.042043 C121.357927,12.0863151 121.95489,13.3574298 123.918174,14.8557852 C124.557555,15.3548391 125.456891,15.9529873 126.616572,16.6506279 L126.943401,16.8502334 C126.948371,16.8532686 126.953361,16.8562691 126.958373,16.8592346 L127.245445,17.029097 C127.495283,17.1747538 127.687136,17.2865833 127.821005,17.3637894 C128.213273,17.6061528 128.493853,17.7943924 128.662746,17.9285082 C129.923996,18.8888087 130.721763,20.0962484 131.055657,21.5504291 C131.373208,22.9576495 131.210152,24.3608901 130.567269,25.760947 C129.896366,27.1968212 129.016488,28.3039725 127.927633,29.0804111 C126.701018,29.9459949 125.138563,30.4454467 123.242213,30.5795624 C122.208229,30.6539827 120.962156,30.4955909 119.504773,30.1039888 C118.343536,29.8043177 117.082286,29.3677451 115.720245,28.7934751 L118.775497,23.5959926 C119.771733,24.2896536 120.641882,24.6048455 121.386724,24.5419663 C122.16659,24.4882404 122.486864,24.0289835 122.34599,23.1641957 C122.251425,22.6149977 121.974737,22.1028109 121.515923,21.6268393 C121.127547,21.2276758 120.473768,20.7652352 119.554585,20.2403133 L118.947508,19.9091269 C118.941279,19.9057284 118.935078,19.9022769 118.928907,19.8987728 L118.322132,19.5542138 C117.821679,19.2816047 117.402171,19.0340676 117.063996,18.8120006 C114.960615,17.4772107 113.698587,15.8312086 113.277911,13.8743923 C112.914441,12.1607354 113.141318,10.5413973 113.95971,9.01597995 C114.748915,7.564187 115.927275,6.47534229 117.49479,5.74825191 C119.521117,4.81182955 121.721397,4.46838182 124.097185,4.71751076 C125.244802,4.83133005 126.446122,4.97737061 127.702313,5.45612799 L127.702313,5.45612799 C127.702313,5.55538674 127.684854,5.65387189 127.650735,5.74708221 Z" id="Fill-36" transform="translate(122.161577, 17.618182) rotate(-13.000000) translate(-122.161577, -17.618182) "></path>
                    </g>
                    <g id="Disney" transform="translate(73.567100, 0.000000)" fill="#1D1D1B">
                        <g id="Group-3">
                            <path d="M0.532211785,1.19830762 C0.25904445,1.20666926 0.0532070909,1.08428522 0.0481758399,0.912947579 C0.0444763906,0.787674978 0.311280674,0.396654193 0.474056442,0.333409773 C0.585187899,0.290233295 1.12693525,0.0789117968 2.02989684,0.0512423633 C2.36447503,0.041056363 2.93271044,0.0833206626 3.41245503,0.156294993 C6.20539126,0.581522496 9.13713084,2.76953616 9.19336247,4.71019725 C9.23154078,6.03042451 8.12126206,7.26901174 5.95397669,7.33529675 C5.38307767,7.35262816 4.85183676,7.28041397 4.36868868,7.14997236 C4.35818224,7.47425204 4.38171074,7.64574171 3.93422535,7.65957643 C3.66076206,7.66778604 3.55406994,7.21245663 3.51367196,6.84195987 C2.20539871,6.24539472 1.41697208,5.27666049 1.40587373,4.89430541 C1.38944818,4.32480157 2.39732614,3.84970828 3.57582271,3.66179938 C3.5926922,3.19050683 3.67023265,1.9900791 3.91247259,1.98262963 C4.0098421,1.97974107 4.21138809,2.21173863 4.28759675,2.56657631 C4.35670246,2.88903163 4.36395338,3.47693107 4.36469327,3.58183167 L4.45362803,3.57848702 C6.10757782,3.52801311 7.09873428,4.05920542 7.11693557,4.68845699 C7.13099348,5.17632079 6.71073604,5.42595381 6.49024886,5.43279515 C6.2696137,5.43933244 6.01124416,5.31056315 6.00932045,5.24047739 C6.00532505,5.10623503 6.4798904,5.07461282 6.47352735,4.85766621 C6.46420474,4.53034594 5.1491245,4.38667772 4.33909308,4.38150871 C4.33790926,4.66367612 4.33420981,5.00437502 4.34086882,5.23317995 C4.34723187,5.45301512 4.36069787,6.02115069 4.3672089,6.49502775 C4.7346382,6.57499545 5.11346181,6.61817193 5.48459056,6.60676969 C6.35795655,6.58016446 8.35314354,6.25299622 8.30860217,4.71308582 C8.24645143,2.56186338 4.10617576,0.585627302 1.88857787,0.653280587 C1.01521188,0.679885812 0.490925931,0.776120709 0.493441557,0.864145995 C0.495217292,0.922829519 0.918730247,0.945481967 0.922281719,1.06178481 C0.925537234,1.17778359 0.681521559,1.19374672 0.532211785,1.19830762 M3.56219525,4.42670157 C2.73460891,4.49073253 1.67616099,4.65042603 1.68487554,4.95184753 C1.69373779,5.26693511 2.47391109,5.87254203 3.49809165,6.26701571 C3.54580009,5.62194606 3.55776412,4.93818145 3.56219525,4.42670157" id="Fill-1"></path>
                        </g>
                        <path d="M9.861336,3.50003783 C10.003966,3.49583188 10.2085897,3.84327366 10.2149518,4.0604811 C10.221314,4.27783875 10.2723589,5.4132959 10.2874505,5.74045897 C10.3022461,6.06747183 10.2917412,6.38081534 10.2708794,6.52592073 C10.2498696,6.6708759 10.1977889,6.7423771 9.95277307,6.74973752 C9.70775724,6.75709794 9.59338693,6.6089883 9.57267303,6.3898281 C9.55181117,6.17051768 9.53361253,5.54878767 9.5442654,5.23724671 C9.55506621,4.92585596 9.56941799,4.3296621 9.60951418,3.95638375 C9.64946241,3.58325562 9.74800138,3.50349272 9.861336,3.50003783" id="Fill-4"></path>
                        <path d="M9.05709213,1.99038462 C9.04110645,1.96583342 9.0260611,1.92660963 9.02402371,1.86559483 C9.01979221,1.73107174 9.2702345,1.21549673 9.90088518,1.17307692 C9.74024479,1.27520407 9.57772373,1.40609533 9.41708333,1.57345019 C9.26568956,1.73092647 9.14548352,1.86951721 9.05709213,1.99038462 M9.60858047,2.24944033 C9.734593,2.07896494 10.3874016,1.24055189 11.060075,1.22135159 C11.2575098,1.21567878 11.3096738,1.33291697 11.3136164,1.46237353 C11.3198336,1.66397667 10.9390665,2.2532222 10.0816961,2.27765895 C9.89381461,2.28304085 9.7353512,2.26951337 9.60858047,2.24944033 M11.1586629,0.786755809 C11.1165435,0.687451637 10.9746596,0.486527159 10.4686124,0.500713469 C9.36613026,0.531402222 8.51790156,1.30050291 8.5371166,1.90660578 C8.54326542,2.10347703 8.64410594,2.27602889 8.79244605,2.41731296 C8.75386225,2.51632761 8.74986552,2.5826269 8.75094156,2.62040881 C8.75447713,2.72564807 8.92264715,3.00358395 9.05177222,2.99996499 C9.16091364,2.99692507 9.23562171,2.90051606 9.34092013,2.74446665 C9.52061918,2.80989738 9.69970335,2.84319179 9.84189464,2.83913855 C10.8785844,2.8101869 11.8190453,1.89531464 11.8005989,1.31005695 C11.792298,1.04066181 11.6067576,0.780096929 11.1586629,0.786755809" id="Fill-6"></path>
                        <path d="M12.4632626,3.5024967 C13.058261,3.48461783 13.8038174,3.56219392 13.8093937,3.75355837 C13.8127093,3.86552855 13.754385,4.09916591 13.4368415,4.13143877 C13.0624808,4.16962075 11.173346,4.25037867 11.1802786,4.48462209 C11.1838956,4.60871353 11.7514649,4.63613789 12.2721639,4.66780469 C12.8070294,4.70038059 13.6662203,4.7206837 13.6919915,5.59099044 C13.7121865,6.27811458 13.4535702,6.42341823 13.337223,6.47811544 C13.1893776,6.54766119 12.6927921,6.73735896 12.3122524,6.74872265 C11.165057,6.78296522 10.691982,6.12023512 10.6820353,5.78326399 C10.6731434,5.48432332 10.979233,5.21886765 11.4939036,5.20356455 C12.0085742,5.18810994 12.8055223,5.3747774 12.8118521,5.5876571 C12.8169762,5.76008207 12.4655233,5.84871881 12.3099918,5.8534158 C11.6076887,5.87432498 11.6422011,5.58750558 11.2373972,5.59947533 C11.0068127,5.60644505 10.6832409,6.0988714 11.8385746,6.06432579 C12.8680665,6.0337196 13.179883,5.69265754 13.1744575,5.50932343 C13.1672234,5.26689815 12.4287503,5.14856432 12.0014908,5.12629149 C11.5742314,5.10401867 10.9331161,5.10704899 10.7144377,4.96780597 C10.4954578,4.82886598 10.5262024,4.51416767 10.6018582,4.25386353 C10.7602531,3.70977031 11.8681136,3.52022404 12.4632626,3.5024967" id="Fill-8"></path>
                        <path d="M14.2110028,3.70183617 C14.6158787,3.68958049 15.4646309,5.54309837 15.6077336,5.53880889 C15.7506845,5.5343662 15.644306,5.10587711 15.5540132,4.63234841 C15.3496024,3.56135547 15.0307703,3.00908405 15.3303299,3.00004549 C15.5517369,2.99345806 16.2775695,3.70244895 16.3180874,5.07569751 C16.3369048,5.71314588 16.2479777,6.54760426 15.6757187,6.56476221 C15.1332032,6.58100098 14.5149632,4.85157182 14.3745921,4.85586131 C14.2990193,4.85815925 14.2926457,5.92716064 14.2724626,6.24963813 C14.2521277,6.57196242 14.1411966,6.74430787 13.9628873,6.74982293 C13.6930712,6.75778912 13.5747042,6.4968964 13.5593772,5.98185159 C13.5442019,5.46695998 13.711585,3.71669617 14.2110028,3.70183617" id="Fill-10"></path>
                        <path d="M18.1189437,4.75020454 C18.3082998,4.7443822 18.4754669,4.71205285 18.4588251,4.96348631 C18.4418835,5.21491978 18.4316886,5.31619797 18.2343864,5.32217354 L17.2220885,5.35297069 C17.1885052,5.46788544 17.1019981,5.76436548 17.0630174,5.88954595 C17.0142916,6.04644288 17.1679654,6.01181524 17.3664669,5.9538982 C17.5651184,5.89613439 18.1036513,5.7925579 18.3250914,5.78581624 C18.5465316,5.77907457 18.7117497,6.13944721 18.5844628,6.2632487 C18.4574758,6.38720341 17.7726155,6.97801842 17.0580699,6.99977561 C16.751322,7.00896879 16.3351284,6.73531848 16.3207356,6.24486234 C16.3132393,5.98515502 16.4153386,5.63673351 16.5129402,5.36614758 C16.4891021,5.3506724 16.471111,5.31512544 16.456868,5.23698341 C16.4250838,5.06062758 16.3475723,4.86665149 16.6348298,4.83340282 C16.6577684,4.83079809 16.6867041,4.82804013 16.7204373,4.82512896 L16.9576197,4.32563286 C16.8613674,4.31123021 16.7783086,4.28962624 16.7141404,4.25836943 C16.539627,4.1731793 16.4036444,3.95407518 16.4007959,3.8560146 C16.394499,3.64074098 17.938883,3.51203646 18.2961558,3.50115786 C18.6801154,3.48951317 18.7891113,3.5653569 18.9117505,3.74431747 C19.0342397,3.92327803 19.0807167,4.05014391 19.0822159,4.09902098 C19.0837152,4.14820449 19.0391873,4.26955447 18.5751674,4.28365068 C18.3376852,4.290852 17.9538756,4.33176165 17.5856582,4.34555142 L17.4253877,4.78222745 C17.78371,4.76414753 18.1189437,4.75020454 18.1189437,4.75020454" id="Fill-12"></path>
                        <path d="M20.5887446,5.75 C21.0651924,4.79794711 21.5563131,4.25523515 21.7291436,4.2500445 C22.0286694,4.24096085 21.7751376,5.62556843 20.5887446,5.75 M19.4546213,6.09819161 C19.0716955,6.93070357 18.8140582,7.81280615 18.8320555,8.47686261 C18.8521293,9.22499424 19.2689729,9.50407496 19.3956457,9.49995512 C19.5223186,9.49583529 19.5286868,9.27443227 19.551391,9.10933367 C19.6802789,8.17504651 19.9024755,7.34711214 20.1559596,6.65147027 C20.2564673,6.6793936 20.3557289,6.69221087 20.4476533,6.68915914 C21.2241646,6.66382978 22.1238879,5.64134762 22.0945385,4.5527955 C22.0791717,3.97815472 21.8796793,3.57044359 21.5454845,3.58142982 C21.0567904,3.5974514 20.3539292,4.41195815 19.7896467,5.43413514 C19.739116,5.01925244 20.0359319,4.38052534 20.2890007,3.93405723 C20.466758,3.62033937 20.4356089,3.24757054 20.3616819,3.25001193 C20.258267,3.25336883 19.2567902,4.18780858 19.2914002,5.4696878 C19.2980454,5.71870897 19.3568825,5.92775248 19.4546213,6.09819161" id="Fill-14"></path>
                    </g>
                </g>
            </g>
        </g>
    </g>
</svg>